<svg width="54" height="32" viewBox="0 0 54 32" fill="none" xmlns="http://www.w3.org/2000/svg">
<g filter="url(#filter0_d_1_357)">
<path d="M13.7474 11.9475C14.6926 11.9475 15.5218 12.1322 16.235 12.5017C16.9568 12.8712 17.511 13.3996 17.8977 14.087C18.2929 14.7658 18.4905 15.5563 18.4905 16.4586C18.4905 17.3608 18.2929 18.1513 17.8977 18.8301C17.511 19.5003 16.9568 20.0202 16.235 20.3897C15.5218 20.7592 14.6926 20.9439 13.7474 20.9439H10.6025V11.9475H13.7474ZM13.683 19.4101C14.6282 19.4101 15.3585 19.1523 15.8741 18.6368C16.3897 18.1212 16.6474 17.3952 16.6474 16.4586C16.6474 15.522 16.3897 14.7916 15.8741 14.2675C15.3585 13.7347 14.6282 13.4683 13.683 13.4683H12.407V19.4101H13.683Z" fill="white"/>
<path d="M21.6457 13.4039V15.6595H24.6746V17.0901H21.6457V19.4746H25.0613V20.9439H19.8413V11.9346H25.0613V13.4039H21.6457Z" fill="white"/>
<path d="M31.8051 16.3297C32.312 16.4242 32.7288 16.6777 33.0553 17.0901C33.3818 17.5026 33.5451 17.9752 33.5451 18.5079C33.5451 18.9891 33.4248 19.4144 33.1842 19.7839C32.9522 20.1448 32.6128 20.4283 32.166 20.6346C31.7191 20.8408 31.1907 20.9439 30.5806 20.9439H26.7011V11.9475H30.4131C31.0231 11.9475 31.5473 12.0463 31.9855 12.2439C32.4323 12.4415 32.7674 12.7165 32.9908 13.0688C33.2228 13.4211 33.3388 13.8206 33.3388 14.2675C33.3388 14.7916 33.1971 15.2298 32.9135 15.5821C32.6385 15.9344 32.2691 16.1836 31.8051 16.3297ZM28.5055 15.6595H30.1553C30.5849 15.6595 30.9157 15.5649 31.1477 15.3759C31.3797 15.1783 31.4957 14.899 31.4957 14.5381C31.4957 14.1772 31.3797 13.898 31.1477 13.7003C30.9157 13.5027 30.5849 13.4039 30.1553 13.4039H28.5055V15.6595ZM30.3228 19.4746C30.7611 19.4746 31.1005 19.3715 31.3411 19.1652C31.5903 18.959 31.7148 18.6669 31.7148 18.2888C31.7148 17.9021 31.586 17.6014 31.3282 17.3866C31.0704 17.1632 30.7224 17.0515 30.2842 17.0515H28.5055V19.4746H30.3228Z" fill="white"/>
<path d="M36.7876 11.9475V20.9439H34.9832V11.9475H36.7876Z" fill="white"/>
<path d="M44.6926 11.9475V13.4039H42.2953V20.9439H40.4909V13.4039H38.0935V11.9475H44.6926Z" fill="white"/>
</g>
<defs>
<filter id="filter0_d_1_357" x="6.60254" y="11.9346" width="42.0901" height="17.0093" filterUnits="userSpaceOnUse" color-interpolation-filters="sRGB">
<feFlood flood-opacity="0" result="BackgroundImageFix"/>
<feColorMatrix in="SourceAlpha" type="matrix" values="0 0 0 0 0 0 0 0 0 0 0 0 0 0 0 0 0 0 127 0" result="hardAlpha"/>
<feOffset dy="4"/>
<feGaussianBlur stdDeviation="2"/>
<feComposite in2="hardAlpha" operator="out"/>
<feColorMatrix type="matrix" values="0 0 0 0 0 0 0 0 0 0 0 0 0 0 0 0 0 0 0.25 0"/>
<feBlend mode="normal" in2="BackgroundImageFix" result="effect1_dropShadow_1_357"/>
<feBlend mode="normal" in="SourceGraphic" in2="effect1_dropShadow_1_357" result="shape"/>
</filter>
</defs>
</svg>
