<svg width="24" height="24" viewBox="0 0 24 24" fill="none" xmlns="http://www.w3.org/2000/svg">
<path d="M20.125 2H3.875C2.84375 2 2 2.84375 2 3.875V20.125C2 21.1562 2.84375 22 3.875 22H20.125C21.1562 22 22 21.1562 22 20.125V3.875C22 2.84375 21.1562 2 20.125 2ZM15.75 5.125C15.75 4.78125 16.0312 4.5 16.375 4.5H18.875C19.2188 4.5 19.5 4.78125 19.5 5.125V7.625C19.5 7.96875 19.2188 8.25 18.875 8.25H16.375C16.2093 8.24967 16.0506 8.18372 15.9334 8.06658C15.8163 7.94944 15.7503 7.79066 15.75 7.625V5.125ZM12 8.25C12.9778 8.27525 13.9071 8.68142 14.5897 9.38193C15.2724 10.0824 15.6544 11.0219 15.6544 12C15.6544 12.9781 15.2724 13.9176 14.5897 14.6181C13.9071 15.3186 12.9778 15.7248 12 15.75C11.0222 15.7248 10.0929 15.3186 9.41028 14.6181C8.72763 13.9176 8.34558 12.9781 8.34558 12C8.34558 11.0219 8.72763 10.0824 9.41028 9.38193C10.0929 8.68142 11.0222 8.27525 12 8.25ZM19.5 18.875C19.5 19.2188 19.2188 19.5 18.875 19.5H5.125C4.95934 19.4997 4.80056 19.4337 4.68342 19.3166C4.56628 19.1994 4.50033 19.0407 4.5 18.875V10.75H5.875C5.68938 11.6582 5.70815 12.5963 5.92994 13.4964C6.15173 14.3964 6.57099 15.2358 7.15734 15.9538C7.74368 16.6718 8.48241 17.2503 9.31999 17.6474C10.1576 18.0446 11.073 18.2504 12 18.25C12.927 18.2504 13.8424 18.0446 14.68 17.6474C15.5176 17.2503 16.2563 16.6718 16.8427 15.9538C17.429 15.2358 17.8483 14.3964 18.0701 13.4964C18.2918 12.5963 18.3106 11.6582 18.125 10.75H19.5V18.875Z" fill="white"/>
</svg>
