<svg width="54" height="32" viewBox="0 0 54 32" fill="none" xmlns="http://www.w3.org/2000/svg">
<path d="M26.7925 5.41618C26.6602 5.51952 26.5314 5.6262 26.4047 5.73621C24.2467 7.61415 22.881 10.3777 22.881 13.4635C22.881 16.5483 24.2467 19.3118 26.4047 21.1898C26.5314 21.2998 26.6602 21.4064 26.7925 21.5109C26.9236 21.4064 27.0536 21.2998 27.1803 21.1898C29.3371 19.3118 30.7039 16.5483 30.7039 13.4635C30.7039 10.3777 29.3371 7.61415 27.1803 5.73621C27.0536 5.6262 26.9236 5.51952 26.7925 5.41618ZM33.1208 3.22266C31.0251 3.22266 29.0749 3.85271 27.4525 4.93391C27.5348 5.0017 27.6192 5.06837 27.6992 5.13838C30.1128 7.23745 31.4962 10.2722 31.4962 13.4635C31.4962 16.6538 30.1128 19.6885 27.7003 21.7876C27.6192 21.8565 27.5348 21.9243 27.4525 21.9921C29.0749 23.0733 31.0251 23.7044 33.1208 23.7044C38.7768 23.7044 43.3617 19.1185 43.3617 13.4635C43.3617 7.8075 38.7768 3.22266 33.1208 3.22266ZM25.8846 21.7876C25.9646 21.8565 26.0491 21.9243 26.1324 21.9921C24.509 23.0733 22.5599 23.7044 20.463 23.7044C14.807 23.7044 10.2222 19.1185 10.2222 13.4635C10.2222 7.8075 14.807 3.22266 20.463 3.22266C22.5599 3.22266 24.509 3.85271 26.1324 4.93391C26.0491 5.0017 25.9646 5.06837 25.8846 5.13838C23.4722 7.23745 22.0887 10.2722 22.0887 13.4635C22.0887 16.6549 23.4722 19.6885 25.8846 21.7876ZM43.0417 19.8085V19.4118H42.9372L42.8183 19.6852L42.6983 19.4118H42.595V19.8085H42.6683V19.5096L42.7805 19.7674H42.8561L42.9683 19.5085V19.8085H43.0417ZM42.3838 19.8085V19.4796H42.5172V19.4118H42.1783V19.4796H42.3116V19.8085H42.3838ZM42.7039 28.6504V28.7171H42.7661C42.7794 28.7171 42.7916 28.7149 42.7994 28.7093C42.8083 28.7037 42.8116 28.6949 42.8116 28.6837C42.8116 28.6726 42.8083 28.6637 42.7994 28.6582C42.7916 28.6537 42.7794 28.6504 42.7661 28.6504H42.7039ZM42.7661 28.6037C42.7983 28.6037 42.8239 28.6104 42.8405 28.6248C42.8583 28.6393 42.8672 28.6582 42.8672 28.6837C42.8672 28.7037 42.8605 28.7215 42.8461 28.7349C42.8316 28.7482 42.8128 28.756 42.7872 28.7593L42.8694 28.8549H42.805L42.7283 28.7604H42.7039V28.8549H42.6505V28.6037H42.7661ZM42.7505 28.9404C42.7794 28.9404 42.8072 28.9349 42.8316 28.9238C42.8572 28.9126 42.8794 28.8982 42.8983 28.8793C42.9172 28.8604 42.9317 28.8371 42.9428 28.8115C42.9539 28.786 42.9594 28.7593 42.9594 28.7293C42.9594 28.7004 42.9539 28.6737 42.9428 28.6482C42.9317 28.6226 42.9172 28.5993 42.8983 28.5804C42.8794 28.5615 42.8572 28.5471 42.8316 28.5359C42.8072 28.5248 42.7794 28.5193 42.7505 28.5193C42.7205 28.5193 42.6927 28.5248 42.6672 28.5359C42.6416 28.5471 42.6194 28.5615 42.6005 28.5804C42.5816 28.5993 42.5661 28.6226 42.555 28.6482C42.545 28.6737 42.5394 28.7004 42.5394 28.7293C42.5394 28.7593 42.545 28.786 42.555 28.8115C42.5661 28.8371 42.5816 28.8604 42.6005 28.8793C42.6194 28.8982 42.6416 28.9126 42.6672 28.9238C42.6927 28.9349 42.7205 28.9404 42.7505 28.9404ZM42.7505 28.4593C42.7883 28.4593 42.8239 28.4671 42.8572 28.4804C42.8905 28.4948 42.9205 28.5137 42.945 28.5393C42.9694 28.5637 42.9894 28.5915 43.0039 28.6248C43.0183 28.6582 43.025 28.6926 43.025 28.7293C43.025 28.7671 43.0183 28.8015 43.0039 28.8349C42.9894 28.8671 42.9694 28.896 42.945 28.9204C42.9205 28.9449 42.8905 28.9638 42.8572 28.9782C42.8239 28.9927 42.7883 29.0004 42.7505 29.0004C42.7116 29.0004 42.675 28.9927 42.6416 28.9782C42.6072 28.9638 42.5783 28.9449 42.5538 28.9204C42.5294 28.896 42.5094 28.8671 42.4949 28.8349C42.4805 28.8015 42.4738 28.7671 42.4738 28.7293C42.4738 28.6926 42.4805 28.6582 42.4949 28.6248C42.5094 28.5915 42.5294 28.5637 42.5538 28.5393C42.5783 28.5137 42.6072 28.4948 42.6416 28.4804C42.675 28.4671 42.7116 28.4593 42.7505 28.4593ZM17.3828 27.4936C17.3828 27.0158 17.6961 26.6236 18.2073 26.6236C18.6973 26.6236 19.0274 26.9992 19.0274 27.4936C19.0274 27.9892 18.6973 28.3648 18.2073 28.3648C17.6961 28.3648 17.3828 27.9715 17.3828 27.4936ZM19.5841 27.4936V26.1346H18.9929V26.4647C18.8051 26.2202 18.5207 26.0657 18.134 26.0657C17.3717 26.0657 16.7738 26.6636 16.7738 27.4936C16.7738 28.3248 17.3717 28.9215 18.134 28.9215C18.5207 28.9215 18.8051 28.7682 18.9929 28.5237V28.8538H19.5841V27.4936ZM39.5625 27.4936C39.5625 27.0158 39.8758 26.6236 40.3881 26.6236C40.877 26.6236 41.2071 26.9992 41.2071 27.4936C41.2071 27.9892 40.877 28.3648 40.3881 28.3648C39.8758 28.3648 39.5625 27.9715 39.5625 27.4936ZM41.7638 27.4936V25.0423H41.1726V26.4647C40.9848 26.2202 40.7003 26.0657 40.3136 26.0657C39.5514 26.0657 38.9535 26.6636 38.9535 27.4936C38.9535 28.3248 39.5514 28.9215 40.3136 28.9215C40.7003 28.9215 40.9848 28.7682 41.1726 28.5237V28.8538H41.7638V27.4936ZM26.9225 26.5958C27.3036 26.5958 27.5481 26.8347 27.6114 27.2547H26.2002C26.2624 26.8625 26.5013 26.5958 26.9225 26.5958ZM26.9347 26.0657C26.138 26.0657 25.5802 26.6469 25.5802 27.4936C25.5802 28.3593 26.1602 28.9215 26.9736 28.9215C27.3836 28.9215 27.7592 28.8193 28.0893 28.5404L27.7992 28.1026C27.5714 28.2848 27.2814 28.387 27.0081 28.387C26.6269 28.387 26.2802 28.2104 26.1947 27.7214H28.2137C28.2193 27.6481 28.2259 27.5736 28.2259 27.4936C28.2193 26.6469 27.6959 26.0657 26.9347 26.0657ZM34.0731 27.4936C34.0731 27.0158 34.3865 26.6236 34.8976 26.6236C35.3877 26.6236 35.7177 26.9992 35.7177 27.4936C35.7177 27.9892 35.3877 28.3648 34.8976 28.3648C34.3865 28.3648 34.0731 27.9715 34.0731 27.4936ZM36.2744 27.4936V26.1346H35.6833V26.4647C35.4955 26.2202 35.211 26.0657 34.8243 26.0657C34.062 26.0657 33.4642 26.6636 33.4642 27.4936C33.4642 28.3248 34.062 28.9215 34.8243 28.9215C35.211 28.9215 35.4955 28.7682 35.6833 28.5237V28.8538H36.2744V27.4936ZM30.7339 27.4936C30.7339 28.3193 31.3084 28.9215 32.1852 28.9215C32.5941 28.9215 32.8675 28.8315 33.163 28.5982L32.8786 28.1204C32.6574 28.2793 32.4241 28.3648 32.1674 28.3648C31.6951 28.3593 31.3484 28.017 31.3484 27.4936C31.3484 26.9703 31.6951 26.6291 32.1674 26.6236C32.4241 26.6236 32.6574 26.7091 32.8786 26.868L33.163 26.3902C32.8675 26.1569 32.5941 26.0657 32.1852 26.0657C31.3084 26.0657 30.7339 26.6691 30.7339 27.4936ZM38.3568 26.0657C38.0157 26.0657 37.7934 26.2258 37.6401 26.4647V26.1346H37.0545V28.8538H37.6456V27.3292C37.6456 26.8803 37.839 26.6291 38.2257 26.6291C38.3457 26.6291 38.4702 26.6469 38.5957 26.698L38.778 26.1402C38.6468 26.0891 38.4757 26.0657 38.3568 26.0657ZM22.5088 26.3502C22.2243 26.1624 21.8309 26.0657 21.3987 26.0657C20.7108 26.0657 20.2675 26.3958 20.2675 26.9369C20.2675 27.3803 20.5964 27.6537 21.2053 27.7381L21.4842 27.7781C21.8087 27.8237 21.9621 27.9092 21.9621 28.0626C21.9621 28.2737 21.7465 28.3926 21.342 28.3926C20.9331 28.3926 20.6364 28.2626 20.4375 28.1081L20.1586 28.5693C20.4831 28.8082 20.8931 28.9215 21.3365 28.9215C22.121 28.9215 22.5766 28.5526 22.5766 28.0348C22.5766 27.557 22.2188 27.3058 21.6265 27.2214L21.3476 27.1814C21.092 27.1469 20.8875 27.0958 20.8875 26.9136C20.8875 26.7147 21.0809 26.5958 21.4054 26.5958C21.7521 26.5958 22.0876 26.7258 22.2521 26.828L22.5088 26.3502ZM30.1372 26.0657C29.7961 26.0657 29.5738 26.2258 29.4205 26.4647V26.1346H28.8338V28.8538H29.426V27.3292C29.426 26.8803 29.6194 26.6291 30.0061 26.6291C30.125 26.6291 30.2506 26.6469 30.3761 26.698L30.5573 26.1402C30.4272 26.0891 30.2561 26.0657 30.1372 26.0657ZM25.0912 26.1346H24.1245V25.3101H23.5266V26.1346H22.9744V26.6747H23.5266V27.9148C23.5266 28.5471 23.7711 28.9215 24.4712 28.9215C24.7268 28.9215 25.0223 28.8426 25.2101 28.7115L25.0401 28.2048C24.8634 28.307 24.6701 28.3593 24.5167 28.3593C24.22 28.3593 24.1245 28.177 24.1245 27.9037V26.6747H25.0912V26.1346ZM16.2505 28.8538V27.1469C16.2505 26.5047 15.8415 26.0724 15.1815 26.0657C14.8348 26.0602 14.4759 26.1691 14.2258 26.5502C14.0381 26.248 13.7425 26.0657 13.3269 26.0657C13.0369 26.0657 12.7524 26.1513 12.5301 26.4702V26.1346H11.939V28.8538H12.5357V27.3458C12.5357 26.8736 12.7979 26.6236 13.2013 26.6236C13.5947 26.6236 13.7936 26.8803 13.7936 27.3403V28.8538H14.3903V27.3458C14.3903 26.8736 14.6637 26.6236 15.0559 26.6236C15.4604 26.6236 15.6537 26.8803 15.6537 27.3403V28.8538H16.2505Z" fill="white"/>
</svg>
