<svg width="54" height="32" viewBox="0 0 54 32" fill="none" xmlns="http://www.w3.org/2000/svg">
<path d="M7.17352 9.83782H3.22616C2.95599 9.83782 2.72629 10.0341 2.68414 10.3009L1.08764 20.423C1.05589 20.6226 1.21061 20.8027 1.41317 20.8027H3.29771C3.56782 20.8027 3.79753 20.6065 3.83967 20.3393L4.27025 17.6092C4.31183 17.3419 4.5421 17.1457 4.81165 17.1457H6.06127C8.66151 17.1457 10.1622 15.8874 10.5541 13.3939C10.7307 12.303 10.5616 11.4459 10.0508 10.8457C9.48977 10.1865 8.49469 9.83782 7.17352 9.83782ZM7.62894 13.5348C7.41306 14.9512 6.33082 14.9512 5.28438 14.9512H4.68873L5.1066 12.306C5.13145 12.1461 5.26994 12.0283 5.43157 12.0283H5.70456C6.41738 12.0283 7.08984 12.0283 7.43728 12.4346C7.64451 12.6771 7.70801 13.0372 7.62894 13.5348Z" fill="white"/>
<path d="M18.9728 13.4886H17.0826C16.9216 13.4886 16.7825 13.6063 16.7575 13.7662L16.674 14.2949L16.5417 14.1033C16.1325 13.5093 15.2199 13.3108 14.3091 13.3108C12.2203 13.3108 10.4362 14.8929 10.0888 17.1122C9.90812 18.2192 10.165 19.2778 10.7929 20.016C11.369 20.6947 12.1932 20.9775 13.1739 20.9775C14.857 20.9775 15.7903 19.8954 15.7903 19.8954L15.706 20.4206C15.6742 20.6215 15.8289 20.8015 16.0304 20.8015H17.733C18.0037 20.8015 18.2323 20.6053 18.275 20.3381L19.2966 13.8684C19.329 13.6692 19.1749 13.4886 18.9728 13.4886ZM16.338 17.1676C16.1556 18.2475 15.2984 18.9725 14.2053 18.9725C13.6564 18.9725 13.2177 18.7964 12.936 18.4628C12.6567 18.1315 12.5505 17.6599 12.6394 17.1346C12.8096 16.064 13.6812 15.3154 14.7576 15.3154C15.2945 15.3154 15.7308 15.4937 16.0182 15.8302C16.3063 16.1701 16.4205 16.6446 16.338 17.1676Z" fill="white"/>
<path d="M29.0402 13.4886H27.1407C26.9594 13.4886 26.7892 13.5787 26.6864 13.7294L24.0666 17.5884L22.9561 13.88C22.8862 13.6479 22.6721 13.4886 22.4297 13.4886H20.5631C20.3362 13.4886 20.1787 13.7103 20.2508 13.9238L22.3431 20.0639L20.3761 22.8408C20.2213 23.0595 20.3772 23.3604 20.6445 23.3604H22.5417C22.7217 23.3604 22.8903 23.2726 22.9925 23.1248L29.3103 14.0053C29.4616 13.787 29.3063 13.4886 29.0402 13.4886Z" fill="white"/>
<path d="M35.3293 9.83782H31.3813C31.1118 9.83782 30.882 10.0341 30.8399 10.3009L29.2434 20.423C29.2117 20.6226 29.3663 20.8027 29.5678 20.8027H31.5938C31.7819 20.8027 31.943 20.6654 31.9724 20.4784L32.4254 17.6092C32.467 17.3419 32.6973 17.1457 32.9669 17.1457H34.2159C36.8167 17.1457 38.3168 15.8874 38.7093 13.3939C38.8866 12.303 38.7163 11.4459 38.2054 10.8457C37.645 10.1865 36.6505 9.83782 35.3293 9.83782ZM35.7847 13.5348C35.5694 14.9512 34.4873 14.9512 33.4401 14.9512H32.8451L33.2636 12.306C33.2884 12.1461 33.4257 12.0283 33.5879 12.0283H33.8609C34.5732 12.0283 35.2462 12.0283 35.5936 12.4346C35.8009 12.6771 35.8637 13.0372 35.7847 13.5348Z" fill="white"/>
<path d="M47.1282 13.4886H45.239C45.0768 13.4886 44.9388 13.6063 44.9146 13.7662L44.8309 14.2949L44.6982 14.1033C44.289 13.5093 43.377 13.3108 42.4662 13.3108C40.3773 13.3108 38.5939 14.8929 38.2463 17.1122C38.0663 18.2192 38.3219 19.2778 38.95 20.016C39.5272 20.6947 40.3502 20.9775 41.3308 20.9775C43.0139 20.9775 43.9472 19.8954 43.9472 19.8954L43.8629 20.4206C43.8312 20.6215 43.9859 20.8015 44.1885 20.8015H45.8906C46.1602 20.8015 46.3899 20.6053 46.4321 20.3381L47.4543 13.8684C47.4853 13.6692 47.3307 13.4886 47.1282 13.4886ZM44.4932 17.1676C44.312 18.2475 43.4537 18.9725 42.3606 18.9725C41.8128 18.9725 41.373 18.7964 41.0913 18.4628C40.812 18.1315 40.7069 17.6599 40.7947 17.1346C40.966 16.064 41.8365 15.3154 42.913 15.3154C43.4497 15.3154 43.886 15.4937 44.1735 15.8302C44.4626 16.1701 44.5769 16.6446 44.4932 17.1676Z" fill="white"/>
<path d="M49.3568 10.1155L47.7366 20.423C47.7049 20.6226 47.8595 20.8027 48.061 20.8027H49.6898C49.9605 20.8027 50.1902 20.6065 50.2318 20.3393L51.8294 10.2178C51.8612 10.018 51.7065 9.83734 51.5051 9.83734H49.6811C49.5201 9.83782 49.3816 9.95572 49.3568 10.1155Z" fill="white"/>
</svg>
