<svg width="10" height="15" viewBox="0 0 10 15" fill="none" xmlns="http://www.w3.org/2000/svg">
<path opacity="0.5" d="M1.04289 8.20711C0.652369 7.81658 0.652369 7.18342 1.04289 6.79289L7.40685 0.428932C7.79738 0.0384081 8.43054 0.0384081 8.82107 0.428932C9.21159 0.819457 9.21159 1.45262 8.82107 1.84315L3.16421 7.5L8.82107 13.1569C9.21159 13.5474 9.21159 14.1805 8.82107 14.5711C8.43054 14.9616 7.79738 14.9616 7.40685 14.5711L1.04289 8.20711ZM2.14286 6.5L3.14286 6.5L3.14286 8.5L2.14286 8.5L2.14286 6.5ZM1.75 6.5L2.14286 6.5L2.14286 8.5L1.75 8.5L1.75 6.5Z" fill="black"/>
</svg>
