<svg width="9" height="15" viewBox="0 0 9 15" fill="none" xmlns="http://www.w3.org/2000/svg">
<path opacity="0.5" d="M8.34968 8.20711C8.74021 7.81658 8.74021 7.18342 8.34968 6.79289L1.98572 0.428932C1.5952 0.0384075 0.962035 0.0384075 0.571511 0.428932C0.180986 0.819456 0.180986 1.45262 0.571511 1.84315L6.22836 7.5L0.57151 13.1569C0.180986 13.5474 0.180986 14.1805 0.57151 14.5711C0.962034 14.9616 1.5952 14.9616 1.98572 14.5711L8.34968 8.20711ZM7.24972 6.5L6.24972 6.5L6.24972 8.5L7.24972 8.5L7.24972 6.5ZM7.64258 6.5L7.24972 6.5L7.24972 8.5L7.64258 8.5L7.64258 6.5Z" fill="black"/>
</svg>
