<svg width="24" height="24" viewBox="0 0 24 24" fill="none" xmlns="http://www.w3.org/2000/svg">
<path d="M6.34314 5.56164C5.79313 6.81049 6.01038 9.04801 6.09839 10.6128C5.50437 10.9464 4.74169 10.361 4.30994 10.361C3.86076 10.361 3.3245 10.6602 3.24016 11.1062C3.17966 11.4277 3.32175 11.896 4.3411 12.3039C4.73528 12.4619 5.67305 12.6477 5.8903 13.1662C6.19556 13.8947 4.32277 17.2575 1.38205 17.7481C1.27102 17.7667 1.17069 17.8263 1.1003 17.9153C1.02992 18.0043 0.994453 18.1165 1.00071 18.2304C1.05204 19.1364 3.05591 19.4913 3.94418 19.6307C4.03493 19.7552 4.10826 20.2812 4.22468 20.6816C4.27693 20.861 4.41169 21.0756 4.75819 21.0756C5.21012 21.0756 5.96088 20.7225 7.26808 20.9418C8.5496 21.1583 9.75412 23 12.0669 23C14.2165 23 15.499 21.15 16.7328 20.9418C17.4469 20.8219 18.0602 20.86 18.7459 20.9957C19.218 21.0896 19.6415 21.1416 19.7762 20.6714C19.8945 20.2654 19.9669 19.7496 20.0558 19.6279C20.9358 19.4895 22.9489 19.1354 22.9993 18.2295C23.0055 18.1156 22.9701 18.0034 22.8997 17.9143C22.8293 17.8253 22.729 17.7658 22.618 17.7472C19.7267 17.264 17.7971 13.9115 18.1097 13.1653C18.326 12.6477 19.2574 12.4638 19.6589 12.303C20.4051 12.0047 20.7791 11.6377 20.7708 11.2131C20.7607 10.6695 20.1154 10.3452 19.6406 10.3452C19.1575 10.3452 18.4635 10.925 17.9016 10.6109C17.9896 9.03314 18.2059 6.80584 17.6569 5.55792C16.6164 3.19496 14.3018 2 11.9881 2C9.68904 2 7.39183 3.17823 6.34314 5.56164Z" fill="white"/>
</svg>
