<svg width="54" height="32" viewBox="0 0 54 32" fill="none" xmlns="http://www.w3.org/2000/svg">
<path d="M22.5555 23.9339H18.6401L21.0891 8.33789H25.0042L22.5555 23.9339Z" fill="white"/>
<path d="M36.7491 8.71965C35.9768 8.40408 34.7519 8.05566 33.2374 8.05566C29.3708 8.05566 26.6481 10.1793 26.6314 13.2154C26.5992 15.4554 28.5808 16.6996 30.0628 17.4465C31.5776 18.2097 32.0925 18.7078 32.0925 19.3881C32.0771 20.433 30.8685 20.9146 29.7412 20.9146C28.178 20.9146 27.3405 20.6663 26.0676 20.085L25.552 19.8358L25.0042 23.3368C25.9224 23.7676 27.6143 24.15 29.3708 24.1668C33.4791 24.1668 36.1537 22.076 36.1854 18.8406C36.201 17.0652 35.1547 15.7048 32.8989 14.5932C31.5294 13.8796 30.6908 13.3984 30.6908 12.6683C30.7069 12.0045 31.4001 11.3246 32.946 11.3246C34.2188 11.2913 35.154 11.6065 35.8625 11.9218L36.2166 12.0874L36.7491 8.71965Z" fill="white"/>
<path d="M41.9529 18.4088C42.2754 17.5128 43.5161 14.0451 43.5161 14.0451C43.4998 14.0784 43.8379 13.1326 44.0312 12.552L44.3049 13.8958C44.3049 13.8958 45.0463 17.629 45.2073 18.4088C44.5954 18.4088 42.7263 18.4088 41.9529 18.4088ZM46.7859 8.33789H43.7574C42.8235 8.33789 42.1139 8.61971 41.711 9.6319L35.8953 23.9336H40.0035C40.0035 23.9336 40.6799 22.0087 40.8252 21.5942C41.2759 21.5942 45.2724 21.5942 45.8522 21.5942C45.9646 22.1417 46.3194 23.9336 46.3194 23.9336H49.9446L46.7859 8.33789Z" fill="white"/>
<path d="M15.37 8.33789L11.5356 18.9729L11.1166 16.816C10.4077 14.3272 8.18442 11.6232 5.70337 10.2787L9.21555 23.9174H13.3559L19.5101 8.33789H15.37Z" fill="white"/>
<path d="M7.97493 8.33789H1.67553L1.61108 8.65301C6.52501 9.94724 9.7794 13.0669 11.1165 16.8166L9.74707 9.64888C9.52162 8.65279 8.82878 8.37075 7.97493 8.33789Z" fill="white"/>
</svg>
