<svg width="24" height="24" viewBox="0 0 24 24" fill="none" xmlns="http://www.w3.org/2000/svg">
<path d="M19.9951 17.189C19.8721 17.9966 18.136 20.0912 17.3371 20.3948C17.0653 20.4983 16.8018 20.4727 16.5909 20.3192C16.455 20.2191 16.3156 20.0166 14.4436 17.1311L13.8872 16.2713C13.6728 15.9631 13.7138 15.5571 13.9786 15.2479C14.2398 14.9475 14.6217 14.8363 14.9532 14.9564C14.972 14.9653 16.3531 15.398 16.3531 15.398C19.502 16.3803 19.6039 16.4181 19.7398 16.5126C19.9389 16.6673 20.0315 16.9086 19.9905 17.189H19.9951ZM13.6857 12.7995C13.4631 12.4781 13.4666 12.0987 13.6974 11.8373L14.5713 10.7038C16.4948 8.21765 16.6003 8.08639 16.7303 7.99962C16.8432 7.93009 16.9738 7.89089 17.1083 7.88619C17.2428 7.88149 17.3761 7.91146 17.4941 7.97293C18.2567 8.32444 19.7972 10.4969 19.8897 11.3312V11.359C19.9063 11.4837 19.8868 11.6104 19.8333 11.7254C19.7799 11.8404 19.6945 11.9395 19.5863 12.012C19.4422 12.0998 19.311 12.151 15.7311 12.9753C15.1652 13.1121 14.8501 13.1866 14.665 13.25L14.6896 13.2245C14.3359 13.3257 13.9399 13.1633 13.7162 12.8273L13.6857 12.7995ZM11.4892 11.5103C11.3182 11.5615 10.7969 11.7161 10.1549 10.7294C10.1549 10.7294 5.82758 4.26315 5.72684 4.06403C5.66475 3.84045 5.73973 3.58682 5.94942 3.38215C6.59371 2.74921 10.0893 1.81926 11.0042 2.03061C11.303 2.10403 11.508 2.28312 11.5794 2.53452C11.6321 2.81261 12.0574 8.815 12.1183 10.1587C12.178 11.3089 11.6591 11.4613 11.4892 11.5103ZM12.0597 18.0878C12.0503 21.2325 12.0421 21.3381 11.9883 21.4872C11.8957 21.7219 11.6837 21.8788 11.3908 21.9299C10.5474 22.0656 7.90926 21.1401 7.35985 20.5205C7.25967 20.4021 7.19601 20.2597 7.17593 20.109C7.1607 20.0088 7.17593 19.9087 7.21459 19.8209C7.28136 19.6584 7.37273 19.5327 9.74258 16.8953L10.4384 16.11C10.6762 15.8207 11.098 15.734 11.4916 15.883C11.8723 16.021 12.1101 16.3336 12.0843 16.6706V18.0711L12.0597 18.0878ZM4.87871 16.0766C4.61864 16.0699 4.3867 15.9209 4.25198 15.6784C4.15475 15.4982 4.08563 15.2023 4.04112 14.8419C3.92163 13.7584 4.06806 12.1232 4.40895 11.6037C4.57061 11.3657 4.80491 11.24 5.0638 11.2489C5.23483 11.2489 5.38712 11.3 8.77379 12.6238L9.76718 12.9986C10.121 13.1221 10.34 13.4736 10.3201 13.8741C10.2943 14.2612 10.0577 14.5593 9.70978 14.6483L8.30169 15.0732C5.15166 16.0343 5.0474 16.061 4.88222 16.0488L4.87871 16.0766ZM18.0224 21.9967H18.0177L18.0142 22L18.0224 21.9967Z" fill="white"/>
</svg>
